<svg width="120" height="36" viewBox="0 0 120 36" fill="none" xmlns="http://www.w3.org/2000/svg">
<path d="M0 8C0 3.58172 3.58172 0 8 0H112C116.418 0 120 3.58172 120 8V28C120 32.4183 116.418 36 112 36H8C3.58172 36 0 32.4183 0 28V8Z" fill="#D2EFFB"/>
<path d="M36 6.75C37.2426 6.75 38.25 7.75736 38.25 9V27C38.25 28.2426 37.2426 29.25 36 29.25H18C16.7574 29.25 15.75 28.2426 15.75 27V9C15.75 7.75736 16.7574 6.75 18 6.75H36ZM18 8.25C17.5858 8.25 17.25 8.58579 17.25 9V27C17.25 27.4142 17.5858 27.75 18 27.75H36C36.4142 27.75 36.75 27.4142 36.75 27V9C36.75 8.58579 36.4142 8.25 36 8.25H18ZM34.5 9.75C34.9142 9.75 35.25 10.0858 35.25 10.5V25.5C35.25 25.9142 34.9142 26.25 34.5 26.25H19.5C19.0858 26.25 18.75 25.9142 18.75 25.5V10.5C18.75 10.0858 19.0858 9.75 19.5 9.75H34.5ZM23.4463 17.334C23.3421 17.22 23.1579 17.22 23.0537 17.334L23.043 17.3467L20.25 20.1396V24.75H24.0615L27.4531 21.3271L23.457 17.3467L23.4463 17.334ZM31.7158 19.5918C31.5955 19.4694 31.4055 19.4694 31.2852 19.5918L31.2812 19.5947L26.1729 24.75H33.75V21.6816L31.7188 19.5947L31.7158 19.5918ZM20.25 18.0176L21.9697 16.2979L21.9707 16.2998C22.6652 15.5672 23.8337 15.5675 24.5283 16.2998L24.5303 16.2979L28.5088 20.2617L30.2188 18.5371C30.9262 17.8213 32.0751 17.8209 32.7822 18.5371L33.75 19.5303V11.25H20.25V18.0176ZM28.5 12.75C29.7426 12.75 30.75 13.7574 30.75 15C30.75 16.2426 29.7426 17.25 28.5 17.25C27.2574 17.25 26.25 16.2426 26.25 15C26.25 13.7574 27.2574 12.75 28.5 12.75Z" fill="#42AEEA"/>
<path d="M44.1678 22V13.54H45.1518V21.136H49.4598V22H44.1678ZM54.3139 22.108C53.4099 22.108 52.6459 21.936 52.0219 21.592C51.4059 21.248 50.9379 20.752 50.6179 20.104C50.2979 19.456 50.1379 18.68 50.1379 17.776C50.1379 16.88 50.2979 16.108 50.6179 15.46C50.9379 14.812 51.3979 14.312 51.9979 13.96C52.5979 13.608 53.3219 13.432 54.1699 13.432C54.5699 13.432 54.9459 13.472 55.2979 13.552C55.6579 13.632 55.9899 13.752 56.2939 13.912C56.6059 14.064 56.8779 14.256 57.1099 14.488L56.7259 15.28C56.3419 14.944 55.9459 14.7 55.5379 14.548C55.1299 14.396 54.6699 14.32 54.1579 14.32C53.1899 14.32 52.4499 14.62 51.9379 15.22C51.4339 15.82 51.1819 16.672 51.1819 17.776C51.1819 18.896 51.4419 19.752 51.9619 20.344C52.4899 20.936 53.2819 21.232 54.3379 21.232C54.7219 21.232 55.0979 21.196 55.4659 21.124C55.8339 21.044 56.1819 20.936 56.5099 20.8L56.2939 21.364V18.376H54.1459V17.596H57.1459V21.508C56.9299 21.62 56.6619 21.724 56.3419 21.82C56.0219 21.908 55.6859 21.976 55.3339 22.024C54.9819 22.08 54.6419 22.108 54.3139 22.108ZM63.0829 22V21.16H65.0149V14.392H65.5309L63.4909 15.688L63.0709 14.956L65.2909 13.54H65.9989V21.16H67.8109V22H63.0829ZM70.0702 22V21.256L72.9622 18.136C73.2342 17.84 73.4542 17.564 73.6222 17.308C73.7902 17.044 73.9142 16.788 73.9942 16.54C74.0742 16.292 74.1142 16.04 74.1142 15.784C74.1142 15.304 73.9662 14.94 73.6702 14.692C73.3822 14.436 72.9582 14.308 72.3982 14.308C71.9662 14.308 71.5622 14.388 71.1862 14.548C70.8182 14.7 70.4662 14.94 70.1302 15.268L69.7582 14.5C70.0702 14.18 70.4662 13.924 70.9462 13.732C71.4342 13.532 71.9462 13.432 72.4822 13.432C73.0502 13.432 73.5302 13.52 73.9222 13.696C74.3142 13.872 74.6102 14.132 74.8102 14.476C75.0102 14.812 75.1102 15.224 75.1102 15.712C75.1102 15.968 75.0782 16.22 75.0142 16.468C74.9582 16.708 74.8662 16.952 74.7382 17.2C74.6182 17.44 74.4622 17.688 74.2702 17.944C74.0862 18.2 73.8622 18.464 73.5982 18.736L71.0542 21.436V21.16H75.4582V22H70.0702ZM79.9855 22.108C79.3455 22.108 78.8015 21.944 78.3535 21.616C77.9135 21.28 77.5815 20.788 77.3575 20.14C77.1335 19.492 77.0215 18.7 77.0215 17.764C77.0215 16.82 77.1335 16.028 77.3575 15.388C77.5815 14.74 77.9135 14.252 78.3535 13.924C78.8015 13.596 79.3455 13.432 79.9855 13.432C80.6335 13.432 81.1775 13.596 81.6175 13.924C82.0575 14.252 82.3895 14.736 82.6135 15.376C82.8375 16.016 82.9495 16.808 82.9495 17.752C82.9495 18.696 82.8375 19.492 82.6135 20.14C82.3895 20.788 82.0575 21.28 81.6175 21.616C81.1775 21.944 80.6335 22.108 79.9855 22.108ZM79.9855 21.256C80.6575 21.256 81.1535 20.972 81.4735 20.404C81.8015 19.836 81.9655 18.952 81.9655 17.752C81.9655 16.552 81.8055 15.676 81.4855 15.124C81.1655 14.564 80.6655 14.284 79.9855 14.284C79.3215 14.284 78.8255 14.564 78.4975 15.124C78.1695 15.684 78.0055 16.56 78.0055 17.752C78.0055 18.952 78.1655 19.836 78.4855 20.404C78.8135 20.972 79.3135 21.256 79.9855 21.256ZM83.9489 22L86.5649 18.736V19.24L84.0929 16.168H85.2449L87.1049 18.532H86.7689L88.6409 16.168H89.7809L87.3209 19.216V18.772L89.9249 22H88.7729L86.7569 19.468H87.1049L85.1009 22H83.9489ZM93.7895 22.108C93.4135 22.108 93.0495 22.068 92.6975 21.988C92.3535 21.908 92.0295 21.796 91.7255 21.652C91.4215 21.5 91.1535 21.316 90.9215 21.1L91.2815 20.32C91.6735 20.64 92.0695 20.872 92.4695 21.016C92.8695 21.16 93.3015 21.232 93.7655 21.232C94.1735 21.232 94.5175 21.172 94.7975 21.052C95.0775 20.932 95.2895 20.756 95.4335 20.524C95.5775 20.284 95.6495 19.992 95.6495 19.648C95.6495 19.152 95.4855 18.776 95.1575 18.52C94.8295 18.264 94.3535 18.136 93.7295 18.136H92.4815V17.284H93.6455C94.0135 17.284 94.3255 17.22 94.5815 17.092C94.8455 16.964 95.0495 16.784 95.1935 16.552C95.3375 16.312 95.4095 16.024 95.4095 15.688C95.4095 15.24 95.2655 14.9 94.9775 14.668C94.6895 14.428 94.2735 14.308 93.7295 14.308C93.2815 14.308 92.8695 14.388 92.4935 14.548C92.1175 14.7 91.7615 14.94 91.4255 15.268L91.0655 14.5C91.3855 14.164 91.7855 13.904 92.2655 13.72C92.7535 13.528 93.2615 13.432 93.7895 13.432C94.3335 13.432 94.7975 13.52 95.1815 13.696C95.5735 13.864 95.8735 14.112 96.0815 14.44C96.2895 14.76 96.3935 15.148 96.3935 15.604C96.3935 16.124 96.2495 16.572 95.9615 16.948C95.6735 17.316 95.2815 17.568 94.7855 17.704V17.572C95.1775 17.636 95.5095 17.764 95.7815 17.956C96.0615 18.148 96.2735 18.396 96.4175 18.7C96.5615 18.996 96.6335 19.336 96.6335 19.72C96.6335 20.208 96.5175 20.632 96.2855 20.992C96.0615 21.344 95.7375 21.62 95.3135 21.82C94.8895 22.012 94.3815 22.108 93.7895 22.108ZM101.581 22.108C100.909 22.108 100.337 21.948 99.8649 21.628C99.4009 21.3 99.0489 20.828 98.8089 20.212C98.5689 19.596 98.4489 18.852 98.4489 17.98C98.4489 17.004 98.5809 16.18 98.8449 15.508C99.1169 14.828 99.5089 14.312 100.021 13.96C100.541 13.608 101.157 13.432 101.869 13.432C102.157 13.432 102.449 13.476 102.745 13.564C103.041 13.644 103.317 13.76 103.573 13.912C103.837 14.064 104.061 14.244 104.245 14.452L103.885 15.22C103.589 14.908 103.265 14.68 102.913 14.536C102.569 14.384 102.213 14.308 101.845 14.308C101.453 14.308 101.105 14.38 100.801 14.524C100.505 14.668 100.249 14.888 100.033 15.184C99.8249 15.472 99.6689 15.836 99.5649 16.276C99.4609 16.708 99.4089 17.212 99.4089 17.788V18.904H99.3009C99.3489 18.448 99.4809 18.056 99.6969 17.728C99.9209 17.392 100.205 17.136 100.549 16.96C100.893 16.784 101.281 16.696 101.713 16.696C102.209 16.696 102.649 16.808 103.033 17.032C103.417 17.256 103.717 17.572 103.933 17.98C104.149 18.38 104.257 18.84 104.257 19.36C104.257 19.888 104.145 20.36 103.921 20.776C103.697 21.192 103.381 21.52 102.973 21.76C102.565 21.992 102.101 22.108 101.581 22.108ZM101.509 21.268C101.861 21.268 102.173 21.192 102.445 21.04C102.717 20.88 102.929 20.66 103.081 20.38C103.233 20.092 103.309 19.764 103.309 19.396C103.309 19.028 103.233 18.704 103.081 18.424C102.929 18.144 102.717 17.924 102.445 17.764C102.181 17.604 101.869 17.524 101.509 17.524C101.157 17.524 100.845 17.604 100.573 17.764C100.301 17.924 100.089 18.144 99.9369 18.424C99.7849 18.704 99.7089 19.028 99.7089 19.396C99.7089 19.764 99.7849 20.092 99.9369 20.38C100.089 20.66 100.301 20.88 100.573 21.04C100.845 21.192 101.157 21.268 101.509 21.268Z" fill="#001D6E"/>
</svg>
